<?xml version="1.0" encoding="UTF-8"?>
<svg width="891px" height="135px" viewBox="0 0 891 135" version="1.1" xmlns="http://www.w3.org/2000/svg" xmlns:xlink="http://www.w3.org/1999/xlink">
    <title>Canopy/Product/CanopyCover</title>
    <g id="Canopy/Product/CanopyCover" stroke="none" stroke-width="1" fill="none" fill-rule="evenodd">
        <path d="M5.68434189e-14,52.7770997 C5.68434189e-14,22.361208 21.6667165,0 53.3334016,0 C74.7223215,0 91.6672047,10.1381581 91.6672047,27.2219396 C91.6672047,37.638603 85.0000866,43.6112297 76.9439856,43.6112297 C68.8893018,43.6112297 62.4999803,37.638603 62.4999803,29.7221089 C62.4999803,21.8056148 68.8893018,15.5551916 76.9439856,15.5551916 C79.4448635,15.5551916 81.6665276,16.1107848 83.6111037,17.0823642 L83.8889003,16.8052762 C78.3329685,9.30476837 68.1941017,4.44403674 58.0559436,4.44403674 C35.1391424,4.44403674 29.4443123,30.2777021 29.4443123,47.0829783 C29.4443123,69.7219829 42.0833484,86.9439541 63.1944718,86.9439541 C73.6111352,86.9439541 83.6111037,82.4999173 90.1393235,76.5272907 L91.2498012,77.0828839 C85.0000866,95.4160413 67.6385085,104.44443 49.1671614,104.44443 C20.2777336,104.44443 5.68434189e-14,82.0832224 5.68434189e-14,52.7770997 Z M461.37655,35.5551995 L461.37655,36.3885892 L452.348869,44.5828799 L469.709739,74.5827854 L486.93171,44.5828799 L477.904029,36.3885892 L477.904029,35.5551995 L500.820831,35.5551995 L500.820831,36.3885892 L491.79315,44.5828799 L457.071411,104.444501 L450.820988,115.138961 C443.598986,127.499492 438.043054,135 427.209695,135 C416.376337,135 409.848826,127.63839 409.848826,119.166303 C409.848826,111.527606 415.820744,106.666165 422.348964,106.666165 C428.876475,106.666165 434.571305,111.527606 434.571305,118.332913 C434.571305,125.13893 428.876475,129.999661 422.348964,129.999661 L421.515574,129.999661 L421.237069,130.277458 C422.903848,130.971241 424.987323,131.388644 427.209695,131.388644 C435.960288,131.388644 440.265426,125.13893 446.931836,113.749978 L454.570533,100.555349 L422.071167,44.5828799 L413.043487,36.3885892 L413.043487,35.5551995 L461.37655,35.5551995 Z M387.482374,33.3328268 C403.593159,33.3328268 419.287249,45.4162697 419.287249,68.888664 C419.287249,92.3610584 403.593159,104.444501 387.482374,104.444501 C378.176188,104.444501 371.509779,100.555349 366.50944,94.860519 L366.50944,123.193645 L375.537829,131.944238 L375.537829,132.777627 L332.482193,132.777627 L332.482193,131.944238 L341.509873,123.193645 L341.509873,52.2215774 L332.482193,43.7501988 L332.482193,42.9161004 L366.50944,34.4440131 L366.50944,42.7772021 C371.509779,37.221979 378.176188,33.3328268 387.482374,33.3328268 Z M293.948263,33.3328268 C315.475372,33.3328268 332.975849,46.6663543 332.975849,68.888664 C332.975849,91.1109738 315.475372,104.444501 293.948263,104.444501 C272.420445,104.444501 254.919968,91.1109738 254.919968,68.888664 C254.919968,46.6663543 272.420445,33.3328268 293.948263,33.3328268 Z M221.524779,33.3331811 C234.302713,33.3331811 246.386156,41.3887152 246.386156,55.0000394 L246.386156,92.6386424 L255.413837,101.388526 L255.413837,102.221916 L212.3582,102.221916 L212.3582,101.388526 L221.385881,92.6386424 L221.385881,57.0828051 C221.385881,49.3052093 218.469016,42.2213963 210.552522,42.2213963 C206.108486,42.2213963 202.219333,44.5826673 199.163571,47.4995315 L199.163571,92.7775407 L208.052353,101.388526 L208.052353,102.221916 L134.397848,102.221774 L134.397848,94.3052802 C130.647594,101.249486 123.703388,104.444147 114.120114,104.444147 C101.758874,104.444147 93.1478889,98.8882152 93.1478889,87.4992638 C93.1478889,73.1941568 107.453705,67.3604285 123.703388,67.3604285 L134.397848,67.3604285 L134.397848,59.721731 C134.397848,45.8333189 126.481353,39.1662008 117.175168,39.1662008 C113.981216,39.1662008 110.925453,39.9995905 108.703789,41.3885735 L108.703789,41.6663701 L109.397572,41.6663701 C116.620283,41.6663701 122.036608,46.3882034 122.036608,52.9164232 C122.036608,59.5828327 116.620283,64.3053747 110.230962,64.3053747 C103.981247,64.3053747 98.4260241,59.5828327 98.4260241,52.2219318 C98.4260241,41.8052684 108.703789,33.3331811 126.481353,33.3331811 C144.814511,33.3331811 159.398123,41.8052684 159.398123,58.332748 L159.398123,92.6385007 L166.724725,99.7388964 L174.164004,92.6386424 L174.164004,52.2213648 L165.135615,43.7499862 L165.135615,42.9165965 L199.163571,34.4438005 L199.163571,43.4721896 C204.719503,37.499563 212.3582,33.3331811 221.524779,33.3331811 Z M293.948263,36.9441824 C285.698406,36.9441824 282.757089,53.9602651 282.699087,68.4503635 L282.69821,68.888664 C282.69821,83.4715676 285.615074,100.833146 293.948263,100.833146 C302.19812,100.833146 305.139437,83.817063 305.197438,69.3269646 L305.198316,68.888664 C305.198316,54.3057605 302.281452,36.9441824 293.948263,36.9441824 Z M134.397848,70.9717841 L133.564458,70.9717841 C123.703388,70.9717841 119.119744,78.6104816 119.119744,86.9443793 C119.119744,92.0829075 120.925422,96.9443478 125.092371,96.9443478 C130.647594,96.9443478 134.397848,88.6104501 134.397848,80.4161594 L134.397848,70.9717841 Z M376.231612,42.4994055 C372.343169,42.4994055 369.148508,44.4439816 366.50944,47.2219475 L366.50944,90.4164823 C369.148508,93.3333465 372.343169,95.2772139 376.231612,95.2772139 C385.398191,95.2772139 391.509716,84.0271608 391.509716,68.888664 C391.509716,53.7494587 385.398191,42.4994055 376.231612,42.4994055 Z M505.335734,52.771147 C505.335734,22.3899798 526.976938,0.0557010506 558.606064,0.0557010506 C579.969472,0.0557010506 596.893804,10.1825205 596.893804,27.2450421 C596.893804,37.6496582 590.23519,43.6151982 582.18901,43.6151982 C574.143539,43.6151982 567.762013,37.6496582 567.762013,29.7423767 C567.762013,21.8358039 574.143539,15.5924674 582.18901,15.5924674 C584.686345,15.5924674 586.905883,16.1473519 588.848333,17.1182226 L589.125421,16.8411347 C583.576576,9.35054811 573.449756,4.49477714 563.322228,4.49477714 C540.433065,4.49477714 534.74603,30.2972612 534.74603,47.0834035 C534.74603,69.6954789 547.368767,86.8968987 568.455796,86.8968987 C578.860412,86.8968987 588.848333,82.4585313 595.368758,76.4929913 L596.477818,77.0478758 C590.23519,95.3597734 572.894872,104.376115 554.444785,104.376115 C525.590082,104.376115 505.335734,82.0418364 505.335734,52.771147 Z M719.251225,35.5693728 L719.251225,36.4013452 L710.234883,44.5864232 L727.574492,74.5508955 L744.77733,44.5864232 L735.759571,36.4013452 L735.759571,35.5693728 L758.649442,35.5693728 L758.649442,36.4013452 L749.631683,44.5864232 L715.228844,104.376469 L714.396163,104.376469 L679.992614,44.5864232 L670.836665,36.4013452 L670.836665,35.5693728 L719.251225,35.5693728 Z M787.645666,33.3491969 C805.818665,33.3491969 819.274792,44.0309009 819.274792,64.8401331 L818.442111,66.0880918 L779.04531,66.0880918 C779.600195,80.2380011 785.842114,89.6717465 799.714936,89.6717465 C807.206231,89.6717465 812.755076,86.8973239 817.47124,83.151322 L818.303921,83.9840031 L817.983127,84.6237112 C812.668888,95.0509367 803.671071,104.37654 786.812985,104.37654 C767.114939,104.37654 751.299668,91.7523862 751.299668,69.0021213 C751.299668,45.9733511 768.08581,33.3491969 787.645666,33.3491969 Z M639.20513,33.3494804 C660.707436,33.3494804 678.186653,46.6674173 678.186653,68.8627978 C678.186653,91.0588869 660.707436,104.376115 639.20513,104.376115 C617.702824,104.376115 600.223607,91.0588869 600.223607,68.8627978 C600.223607,46.6674173 617.702824,33.3494804 639.20513,33.3494804 Z M639.20513,36.956584 C630.964394,36.956584 628.027335,53.9518299 627.969418,68.4250087 L627.968542,68.8627978 C627.968542,83.429402 630.881154,100.769012 639.20513,100.769012 C647.529106,100.769012 650.441719,83.429402 650.441719,68.8627978 L650.438203,67.9856757 C650.32305,53.6102256 647.362627,36.956584 639.20513,36.956584 Z M787.368578,36.9563006 C780.293269,36.9563006 779.1835,53.0486601 779.04531,62.7587847 L794.859165,61.787914 L794.855692,60.6061953 C794.779751,47.9202082 793.42324,36.9563006 787.368578,36.9563006 Z M890.996698,47.9156594 C890.996698,56.6549133 884.753361,61.6495826 878.095456,61.6495826 C871.159045,61.6495826 865.470593,56.5167237 865.470593,49.580313 C865.470593,44.0314679 869.077696,39.4534935 873.795278,37.2339554 L873.795278,36.9561588 L873.378583,36.9561588 C867.274145,36.9561588 861.170415,41.8119298 856.315353,47.9156594 L856.315353,92.5849256 L865.332403,101.324179 L865.332403,102.156861 L822.327791,102.156861 L822.327791,101.324179 L831.344841,92.5849256 L831.344841,52.2158372 L822.327791,43.7536713 L822.327791,42.9216988 L856.315353,34.4595329 L856.315353,43.3376851 C861.170415,37.6499417 867.413752,33.3490552 875.043236,33.3490552 C883.227606,33.3490552 890.996698,38.3437245 890.996698,47.9156594 Z" id="Shape" fill="#252A34"></path>
    </g>
</svg>