<svg width="151" height="15" viewBox="0 0 151 15" xmlns="http://www.w3.org/2000/svg">
    <g fill-rule="nonzero" fill="none">
        <path fill="#00B67A" d="M69.875 0h15.211v15h-15.21zM86.353 0h15.211v15h-15.21zM102.832 0h15.211v15h-15.21zM119.31 0h15.211v15h-15.21z"/>
        <path fill="#DCDCE6" d="M143.394 0H151v15h-7.605z"/>
        <path fill="#00B67A" d="M135.79 0h7.604v15h-7.605z"/>
        <path d="m77.48 10.11 2.314-.579.966 2.938-3.28-2.36zm5.324-3.797h-4.072L77.481 2.53l-1.252 3.781h-4.072l3.295 2.344-1.251 3.781 3.295-2.343 2.029-1.438 3.28-2.344zM93.96 10.11l2.312-.579.967 2.938-3.28-2.36zm5.323-3.797H95.21L93.959 2.53l-1.252 3.781h-4.072l3.296 2.344-1.252 3.781 3.296-2.343 2.028-1.438 3.28-2.344zM110.438 10.11l2.313-.579.966 2.938-3.28-2.36zm5.323-3.797h-4.072l-1.251-3.782-1.252 3.781h-4.072l3.295 2.344-1.251 3.781 3.295-2.343 2.029-1.438 3.28-2.344zM126.916 10.11l2.313-.579.967 2.938-3.28-2.36zm5.324-3.797h-4.072l-1.252-3.782-1.252 3.781h-4.072l3.296 2.344-1.252 3.781 3.296-2.343 2.028-1.438 3.28-2.344zM143.395 10.11l2.313-.579.966 2.938-3.28-2.36zm5.323-3.797h-4.072l-1.251-3.782-1.252 3.781h-4.072l3.295 2.344-1.251 3.781 3.295-2.343 2.029-1.438 3.28-2.344z" fill="#FFF"/>
        <g>
            <path d="M16.278 5.316h6.272V6.47h-2.466v6.487h-1.356V6.47h-2.455V5.316h.005zm6.004 2.109h1.16v1.067h.021c.039-.15.11-.296.214-.437a2.017 2.017 0 0 1 .87-.674c.18-.07.365-.107.551-.107.142 0 .246.005.301.01.055.006.11.017.17.022V8.48a4 4 0 0 0-.268-.037 2.303 2.303 0 0 0-.268-.017c-.208 0-.405.044-.59.124-.187.081-.345.205-.482.362a1.827 1.827 0 0 0-.328.593c-.082.237-.12.507-.12.814v2.631h-1.236V7.425h.005zm8.968 5.532h-1.214v-.772h-.022c-.153.28-.377.502-.678.67-.3.166-.607.252-.919.252-.738 0-1.274-.177-1.602-.539-.328-.361-.492-.906-.492-1.633v-3.51h1.236v3.391c0 .485.093.83.284 1.03.186.2.454.302.793.302.263 0 .476-.038.65-.119.176-.08.318-.183.422-.318.11-.13.186-.291.235-.474.05-.184.071-.383.071-.599V7.43h1.236v5.527zm2.105-1.774c.038.355.175.603.41.75.24.14.525.215.859.215.114 0 .246-.011.393-.027.148-.016.29-.054.416-.103a.8.8 0 0 0 .322-.22.531.531 0 0 0 .115-.378.518.518 0 0 0-.175-.383 1.235 1.235 0 0 0-.415-.243c-.17-.059-.361-.113-.58-.156-.219-.043-.437-.092-.662-.14a6.35 6.35 0 0 1-.667-.183 2.047 2.047 0 0 1-.574-.292 1.286 1.286 0 0 1-.404-.463c-.104-.189-.153-.42-.153-.701 0-.302.076-.55.224-.755.147-.205.339-.367.563-.49.23-.125.481-.211.76-.265a4.69 4.69 0 0 1 .798-.075c.29 0 .569.032.831.091.263.06.503.157.717.297.213.135.388.312.53.528.142.216.23.48.268.787h-1.29c-.06-.29-.192-.49-.405-.587a1.677 1.677 0 0 0-.733-.151c-.087 0-.191.005-.311.021s-.23.043-.34.081a.736.736 0 0 0-.267.173.414.414 0 0 0-.11.296c0 .151.055.27.159.361.104.092.24.168.41.232.17.06.36.114.58.157.218.043.442.091.672.14.224.048.443.113.662.183.218.07.41.167.58.291.169.124.306.275.41.459.103.183.158.415.158.684 0 .33-.077.604-.23.836-.153.227-.35.415-.59.555a2.8 2.8 0 0 1-.81.313A4.116 4.116 0 0 1 33.613 13c-.3-.081-.563-.2-.782-.356a1.772 1.772 0 0 1-.52-.599 1.942 1.942 0 0 1-.202-.852h1.247v-.01zm4.08-3.758h.934V5.764h1.236v1.66h1.115v.912h-1.115v2.954c0 .13.005.238.016.335.011.091.039.172.077.237a.35.35 0 0 0 .18.146.893.893 0 0 0 .328.048c.088 0 .175 0 .263-.005.087-.006.175-.016.262-.038v.944c-.136.016-.273.026-.399.043a3.242 3.242 0 0 1-.399.021c-.328 0-.59-.032-.787-.091a1.025 1.025 0 0 1-.465-.27.931.931 0 0 1-.23-.442 3.28 3.28 0 0 1-.07-.61V8.348h-.936v-.922h-.01zm4.16 0h1.17v.749h.022c.175-.324.416-.55.728-.69.311-.14.645-.21 1.011-.21.443 0 .826.075 1.154.231.328.151.601.362.82.631.219.27.377.583.487.938.11.356.164.74.164 1.143 0 .373-.05.734-.148 1.079-.098.35-.246.658-.443.927-.197.27-.448.48-.754.642-.307.162-.662.242-1.078.242-.18 0-.36-.016-.54-.048a2.408 2.408 0 0 1-.52-.156 1.88 1.88 0 0 1-.46-.275 1.717 1.717 0 0 1-.355-.389h-.022V15h-1.236V7.425zm4.32 2.77c0-.247-.033-.49-.098-.727a1.95 1.95 0 0 0-.296-.625 1.497 1.497 0 0 0-.486-.437 1.38 1.38 0 0 0-.673-.167c-.52 0-.913.178-1.175.533-.263.356-.394.83-.394 1.424 0 .28.033.54.104.776.07.238.17.442.311.615.137.173.301.307.492.404.192.103.416.151.668.151.284 0 .52-.059.716-.172.197-.113.355-.264.481-.442.126-.184.219-.389.273-.62.05-.232.077-.47.077-.712zm2.182-4.879h1.236V6.47h-1.236V5.316zm0 2.109h1.236v5.532h-1.236V7.425zm2.34-2.109h1.236v7.64h-1.236v-7.64zm5.025 7.791c-.448 0-.847-.075-1.197-.22a2.645 2.645 0 0 1-.892-.604 2.622 2.622 0 0 1-.552-.922 3.514 3.514 0 0 1-.191-1.176c0-.42.065-.809.191-1.165.126-.355.312-.663.552-.922a2.52 2.52 0 0 1 .892-.603c.35-.146.749-.221 1.197-.221.449 0 .848.075 1.198.22.35.146.645.351.891.604.24.26.427.567.552.922.126.356.192.745.192 1.165 0 .426-.066.82-.192 1.176a2.622 2.622 0 0 1-.552.922 2.52 2.52 0 0 1-.891.603c-.35.146-.75.221-1.198.221zm0-.965c.274 0 .514-.059.717-.172.202-.113.366-.264.497-.448.131-.183.224-.393.29-.625.06-.232.093-.47.093-.712 0-.237-.033-.469-.093-.706a1.833 1.833 0 0 0-.29-.626 1.45 1.45 0 0 0-1.214-.615c-.273 0-.514.06-.716.173a1.563 1.563 0 0 0-.498.442 1.941 1.941 0 0 0-.29.626c-.06.237-.092.469-.092.706 0 .243.032.48.093.712.06.232.158.442.29.625.13.184.295.335.497.448.202.118.443.172.716.172zm3.194-4.717h.935V5.764h1.235v1.66h1.116v.912h-1.116v2.954c0 .13.006.238.017.335.01.091.038.172.076.237a.35.35 0 0 0 .18.146.893.893 0 0 0 .329.048c.087 0 .175 0 .262-.005.088-.006.175-.016.263-.038v.944c-.137.016-.274.026-.4.043a3.242 3.242 0 0 1-.399.021c-.328 0-.59-.032-.787-.091a1.025 1.025 0 0 1-.465-.27.931.931 0 0 1-.23-.442 3.28 3.28 0 0 1-.07-.61V8.348h-.936v-.922h-.01z" fill="#252A34"/>
            <path fill="#00B67A" d="M14.835 5.316H9.17L7.42 0 5.665 5.316 0 5.311 4.588 8.6l-1.756 5.31 4.588-3.283 4.582 3.284-1.75-5.311z"/>
            <path fill="#005128" d="M10.646 9.802 10.253 8.6 7.42 10.627z"/>
        </g>
    </g>
</svg>
